<?xml version="1.0" encoding="utf-8"?>
<!-- Generator: Adobe Illustrator 21.0.0, SVG Export Plug-In . SVG Version: 6.00 Build 0)  -->
<svg version="1.1" id="Layer_1" xmlns="http://www.w3.org/2000/svg" xmlns:xlink="http://www.w3.org/1999/xlink" x="0px" y="0px"
	 viewBox="0 0 24 24" style="enable-background:new 0 0 24 24;" xml:space="preserve">
<g>
	<path d="M19.5,6.3l0.6,0.8l0.3-0.4l0.3-0.4c0.7-0.8,0.5-2.1-0.3-2.7l-1.5-1.2c-0.8-0.7-2.1-0.5-2.7,0.3l-0.6,0.8l0.9,0.4l0.4-0.6
		c0.3-0.4,0.9-0.5,1.4-0.2l1.5,1.2c0.4,0.3,0.5,0.9,0.2,1.4L19.5,6.3z"/>
	<path d="M7.8,2.7C7.2,1.9,6,1.8,5.1,2.4L3.6,3.6c-0.8,0.7-1,1.9-0.3,2.7l0.6,0.8l0.6-0.8L4,5.7c-0.3-0.4-0.3-1,0.2-1.4l1.5-1.2
		c0.4-0.3,1-0.3,1.4,0.2l0.4,0.6l0.9-0.4L8.1,3.1L7.8,2.7z"/>
	<path d="M3.3,12.3c0,2.9,1.4,5.5,3.6,7.1L5,21.3L5.7,22l2.1-2.1C9,20.6,10.5,21,12,21c1.5,0,2.9-0.4,4.1-1.1l2,2l0.7-0.7L17,19.5
		c2.2-1.6,3.7-4.2,3.7-7.1c0-4.8-3.9-8.7-8.7-8.7C7.2,3.7,3.3,7.6,3.3,12.3z M19.7,12.3c0,4.3-3.5,7.7-7.7,7.7s-7.7-3.5-7.7-7.7
		S7.7,4.6,12,4.6C16.3,4.6,19.7,8.1,19.7,12.3z"/>
	<path d="M12.1,5.5V12l5.3,4.6c0.9-1.2,1.4-2.6,1.4-4.2C18.8,8.6,15.8,5.6,12.1,5.5z"/>
	<path d="M12,12.1l-5.3,4.6c1.3,1.5,3.2,2.5,5.3,2.5c2.1,0,4-1,5.3-2.5L12,12.1z"/>
</g>
</svg>
