<?xml version="1.0" encoding="utf-8"?>
<!-- Generator: Adobe Illustrator 21.0.0, SVG Export Plug-In . SVG Version: 6.00 Build 0)  -->
<svg version="1.1" id="Layer_1" xmlns="http://www.w3.org/2000/svg" xmlns:xlink="http://www.w3.org/1999/xlink" x="0px" y="0px"
	 viewBox="0 0 512 512" style="enable-background:new 0 0 512 512;" xml:space="preserve">
<g>
	<path d="M324.5,5.9c0,46.4-0.1,92.8-0.1,139.2c0,13-0.1,26,0.1,39.1c0.1,3.6-1.1,5.1-4.4,6.2c-16.4,5.6-32.8,11.5-49.9,17.5
		c6.7,6,10.8,12.7,10.4,21.4c-0.5,8.4-4.2,15.1-11.3,19.4c4.5,8.6,9,17.2,13.6,25.9c7.1-4.5,13.9-8.9,20.8-13.1
		c2.3-1.4,5-2.4,7.6-3.1c8.2-2.1,15.8,1.7,17.1,10c1.3,8.7,0.7,17.8,0.8,26.7c0,1.8-0.3,3.5-0.5,6.1c5.3-0.2,10.2-0.6,15.2-0.7
		c5.3,0,10.8-0.4,16,0.6c10.4,1.9,14.8,9.5,11.3,19.5c-1.7,4.8-4.7,9.2-7.3,13.7c-2.6,4.3-5.5,8.4-8.5,13c5.7,2.9,11.1,5.4,16.3,8.3
		c3.9,2.2,8,4.5,11.3,7.5c7.1,6.4,7.2,14.9,0.2,21.3c-3.5,3.2-7.9,5.7-12.1,8.1c-4.9,2.8-10.1,5.1-15.7,7.9
		c2.5,3.9,4.9,7.5,7.2,11.2c2.4,3.9,5,7.6,7.1,11.7c6.6,13,0.1,23.8-14.4,24.2c-5.8,0.2-11.7-0.3-17.6-0.5c-2.9-0.1-5.8-0.3-9-0.4
		c0.3,6.5,0.7,12.5,0.9,18.5c0.1,2.9,0.2,5.9,0,8.8c-1,14.1-11.3,20.1-24,13.7c-5.1-2.6-9.7-5.9-14.6-8.9c-2.7-1.7-5.4-3.5-8.4-5.5
		c-2.8,5.5-5.3,10.8-8,15.9c-1.7,3.2-3.3,6.4-5.4,9.2c-8.1,10.8-19.7,10.3-27.1-1.4c-3.8-6-6.8-12.6-10.1-18.9
		c-0.8-1.5-1.6-3.1-2.5-4.7c-7.5,4.7-14.5,9.3-21.8,13.5c-2.5,1.4-5.4,2.4-8.2,2.8c-7.9,1.2-14.5-2.4-15.6-10.3
		c-1.3-8.7-0.6-17.8-0.7-26.7c0-1.8,0.2-3.6,0.4-6.1c-3.4,0.2-6.5,0.5-9.7,0.4c-7.6-0.1-15.3,0.5-22.8-0.7
		c-8.8-1.4-13.2-9.2-10.3-17.6c1.9-5.6,5.2-10.8,8.1-16c2.3-4.1,5.1-7.8,8-12.2c-5.8-2.9-11.4-5.5-16.7-8.5c-4.1-2.3-8.2-4.8-11.6-8
		c-6.3-6-6.5-14.4,0-20.2c4.4-3.9,9.9-6.8,15-9.8c4.1-2.4,8.4-4.2,13.2-6.6c-2.6-4-5.1-7.7-7.4-11.5c-2.3-3.7-4.8-7.4-6.8-11.3
		c-6.6-13-0.5-23.7,14.1-24.4c7.1-0.3,14.3,0.5,21.5,0.7c1.6,0.1,3.2,0,5.2,0c-0.3-6.5-0.9-12.6-0.9-18.7c0-4.5,0.1-9.2,1.1-13.5
		c2.1-8.8,9.3-13,17.8-10.2c5,1.6,9.7,4.5,14.3,7.2c4.6,2.7,9,5.8,13.6,8.9c4.6-8.8,9.2-17.4,13.7-26c-14.3-8.5-15.1-25.1-1.3-40.7
		c-3.3-1.2-6.4-2.4-9.6-3.5c-13.2-4.6-26.3-9.4-39.6-13.8c-3.7-1.2-4.9-2.9-4.9-6.9c0.2-57.5,0.1-114.9,0.1-172.4
		c0-1.8,0-3.6-0.1-5.4c18.6,0,37.1,0,55.7,0c-0.1,1.1-0.3,2.3-0.3,3.4c0,64.7,0,129.5,0,194.2c0,1.3,0.2,2.5,0.3,3.8
		c8.6,0,16.9,0,25.6,0c0-1.9,0-3.3,0-4.8c0-64.1,0-128.2,0-192.3c0-1.5-0.2-2.9-0.3-4.4C287.4,5.9,306,5.9,324.5,5.9z M256.1,288.1
		c-47.5,0-86,38.6-85.9,86c0.1,47.2,38.3,85.4,85.7,85.9c47,0.4,86.1-38.5,86.2-85.9C342.2,326.6,303.6,288,256.1,288.1z
		 M243.4,228.1c-0.1,6.8,5.7,12.9,12.4,13.1c6.8,0.2,13.1-6,13.1-12.9c0-6.8-5.9-12.7-12.7-12.8
		C249.5,215.4,243.5,221.3,243.4,228.1z"/>
	<path d="M292.8,430.2c-10.5-5.5-20.2-10.2-29.4-15.6c-5.3-3.2-9.4-3-14.6,0.1c-9.2,5.4-18.9,10.1-29.2,15.5
		c1.7-10,2.6-19.2,4.9-28.1c2.4-9,0.8-15.4-6.7-21.5c-7.1-5.8-12.9-13.2-19.5-20.2c8.1-1.2,16.6-3.4,25.2-3.6
		c10.8-0.3,17.1-4.6,20.8-14.8c2.9-8.2,7.5-15.7,11.9-24.6c3.9,8,8.2,14.8,10.7,22.1c4,11.6,10.9,17.5,23.6,17.4
		c7.5-0.1,15.1,2.1,22.6,3.3c0.4,0.1,0.8,0.3,0.2,0.1c-7.7,8.3-15.5,17-23.8,25.2c-2.9,2.9-3.6,5.6-2.9,9.4
		C288.8,406.4,290.6,417.7,292.8,430.2z"/>
</g>
</svg>
