<?xml version="1.0" encoding="utf-8"?>
<!-- Generator: Adobe Illustrator 21.0.0, SVG Export Plug-In . SVG Version: 6.00 Build 0)  -->
<svg version="1.1" id="Layer_1" xmlns="http://www.w3.org/2000/svg" xmlns:xlink="http://www.w3.org/1999/xlink" x="0px" y="0px"
	 viewBox="0 0 512 512" style="enable-background:new 0 0 512 512;" xml:space="preserve">
<g>
	<polygon points="290.2,200.8 270,208 241.7,208 221.5,200.7 221.5,6 290.2,6 	"/>
	<path d="M291.4,430.3c-10.5-5.5-20.2-10.2-29.4-15.6c-5.3-3.2-9.4-3-14.6,0.1c-9.2,5.4-18.9,10.1-29.2,15.5
		c1.7-10,2.6-19.2,4.9-28.1c2.4-9,0.8-15.4-6.7-21.5c-7.1-5.8-12.9-13.2-19.5-20.2c8.1-1.2,16.6-3.4,25.2-3.6
		c10.8-0.3,17.1-4.6,20.8-14.8c2.9-8.2,7.5-15.7,11.9-24.6c3.9,8,8.2,14.8,10.7,22.1c4,11.6,10.9,17.5,23.6,17.4
		c7.5-0.1,15.1,2.1,22.6,3.3c0.4,0.1,0.8,0.3,0.2,0.1c-7.7,8.3-15.5,17-23.8,25.2c-2.9,2.9-3.6,5.6-2.9,9.4
		C287.4,406.5,289.3,417.8,291.4,430.3z"/>
	<path d="M382.8,363.2c-3.3-3-7.4-5.3-11.3-7.5c-5.2-2.9-10.6-5.4-16.3-8.3c3-4.6,5.9-8.7,8.5-13c2.6-4.5,5.6-8.9,7.3-13.7
		c3.5-10-0.9-17.6-11.3-19.5c-5.2-1-10.7-0.6-16-0.6c-5,0-9.9,0.4-15.2,0.7c0.2-2.6,0.5-4.4,0.5-6.1c-0.1-8.9,0.6-17.9-0.8-26.7
		c-1.3-8.3-8.9-12.1-17.1-10c-2.6,0.7-5.3,1.7-7.6,3.1c-7,4.2-13.7,8.6-20.8,13.1c-4.6-8.7-9.1-17.3-13.6-25.9
		c7.1-4.2,10.9-10.9,11.3-19.4c0.5-8.7-3.7-15.4-10.4-21.4c0.5-0.2,1.1-0.4,1.6-0.6H269c-8.7,0-17,0-25.6,0h-3.3
		c0.5,0.2,1,0.4,1.5,0.6c-13.8,15.6-13,32.2,1.3,40.7c-4.5,8.6-9.1,17.2-13.7,26c-4.7-3.1-9-6.2-13.6-8.9c-4.6-2.7-9.3-5.5-14.3-7.2
		c-8.6-2.8-15.7,1.4-17.8,10.2c-1,4.3-1.1,9-1.1,13.5c0,6.1,0.6,12.2,0.9,18.7c-2,0-3.6,0-5.2,0c-7.2-0.3-14.3-1.1-21.5-0.7
		c-14.7,0.7-20.7,11.3-14.1,24.4c2,3.9,4.5,7.5,6.8,11.3c2.4,3.8,4.8,7.5,7.4,11.5c-4.8,2.4-9.1,4.3-13.2,6.6
		c-5.2,3-10.6,5.8-15,9.8c-6.5,5.8-6.3,14.2,0,20.2c3.4,3.2,7.5,5.7,11.6,8c5.3,3,10.9,5.6,16.7,8.5c-2.9,4.4-5.7,8.2-8,12.2
		c-3,5.2-6.2,10.4-8.1,16c-2.9,8.4,1.5,16.2,10.3,17.6c7.4,1.2,15.2,0.6,22.8,0.7c3.2,0,6.3-0.3,9.7-0.4c-0.2,2.5-0.5,4.3-0.4,6.1
		c0.1,8.9-0.6,17.9,0.7,26.7c1.2,7.9,7.7,11.6,15.6,10.3c2.8-0.4,5.8-1.4,8.2-2.8c7.3-4.3,14.4-8.9,21.8-13.5
		c0.8,1.6,1.7,3.1,2.5,4.7c3.4,6.3,6.3,12.9,10.1,18.9c7.3,11.6,18.9,12.1,27.1,1.4c2.1-2.8,3.8-6.1,5.4-9.2
		c2.7-5.2,5.3-10.4,8-15.9c3.1,2,5.7,3.8,8.4,5.5c4.8,3,9.5,6.3,14.6,8.9c12.6,6.4,22.9,0.4,24-13.7c0.2-2.9,0.2-5.9,0-8.8
		c-0.2-6-0.6-11.9-0.9-18.5c3.2,0.2,6.1,0.3,9,0.4c5.9,0.2,11.7,0.7,17.6,0.5c14.5-0.4,20.9-11.2,14.4-24.2c-2-4-4.6-7.8-7.1-11.7
		c-2.3-3.7-4.7-7.3-7.2-11.2c5.6-2.8,10.8-5.1,15.7-7.9c4.2-2.4,8.5-4.9,12.1-8.1C390,378.1,389.9,369.6,382.8,363.2z M256.1,215.6
		c6.8,0.1,12.7,6,12.7,12.8c0,6.9-6.3,13.1-13.1,12.9c-6.7-0.2-12.5-6.3-12.4-13.1C243.3,221.4,249.3,215.5,256.1,215.6z M255.8,460
		c-47.4-0.4-85.6-38.7-85.7-85.9c-0.1-47.4,38.4-86,85.9-86c47.5,0,86,38.5,85.9,85.9C341.9,421.4,302.8,460.4,255.8,460z"/>
	<path d="M189.7,6c0.1,1.7,0.2,3.4,0.2,5.1c0,57.4,0,114.9,0,172.3c0,1.7,0,3.4,0,5.7c-1.7-0.6-2.9-1-4.1-1.5
		c-15.7-7.3-31.3-14.7-47.1-21.8c-2.7-1.2-3.5-3-3.5-6.6c0.1-48.8,0.1-97.7,0-146.5c0-2.2-0.2-4.4-0.4-6.6C153.2,6,171.5,6,189.7,6z
		"/>
	<path d="M374.3,6c-0.1,2.2-0.4,4.4-0.4,6.6c0,48.7-0.1,97.4,0.1,146c0,4.1-0.9,6-3.9,7.3c-15.5,7-30.9,14.3-46.3,21.5
		c-1.2,0.6-2.4,1-4.1,1.7c-0.1-1.8-0.3-3.2-0.3-4.7c0-58.3,0-116.6,0-174.9c0-1.2,0.1-2.4,0.2-3.6C337.8,6,356.1,6,374.3,6z"/>
</g>
</svg>
