<?xml version="1.0" encoding="utf-8"?>
<!-- Generator: Adobe Illustrator 21.0.0, SVG Export Plug-In . SVG Version: 6.00 Build 0)  -->
<svg version="1.1" id="Layer_1" xmlns="http://www.w3.org/2000/svg" xmlns:xlink="http://www.w3.org/1999/xlink" x="0px" y="0px"
	 viewBox="0 0 24 24" style="enable-background:new 0 0 24 24;" xml:space="preserve">
<style type="text/css">
	.st0{fill:#010002;}
</style>
<g>
	<path class="st0" d="M16.7,10.4c-0.2,0.1-0.3,0.2-0.5,0.3c-0.4-0.5-0.9-1-1.3-1.6C15,8.9,15,8.7,15.1,8.6c0.6-0.1,1.1-0.3,1.2-0.8
		c-0.5-0.1-1.1,0-1.7,0c-0.6,0-1.3,0-1.7,0.2c0.2,0.5,0.9,0.5,1.4,0.7c0,0.3-0.3,0.2-0.5,0.2c-1.6,0-3.4,0-4.9,0
		C9,8.4,9.1,7.9,9.3,7.5C9.2,7.3,9.1,7.1,9,6.9c0.2-0.5,1-0.3,1.6-0.3c0-0.1,0-0.3,0-0.4c-0.5,0-1,0-1.4,0C8.8,6.4,8.6,6.7,8.4,6.9
		C8.2,6.8,8,6.7,7.7,6.7c-0.2,0-0.3,0-0.5,0.1C7.2,7,7.1,7.2,7.1,7.4c0,0.3,0.1,0.5,0.2,0.8c0.1,0,0.3,0.1,0.4,0.1
		c0.4,0,0.7-0.2,0.9-0.4c0,0.1-0.1,0.3-0.1,0.5C8.2,9.1,7.8,10,7.6,10.6c-0.6-0.3-1.2-0.5-2-0.4C3.4,10.3,1.9,12,2,14.1
		c0.1,2,1.6,3.7,3.8,3.7c2.2,0,3.9-1.8,3.8-3.9c0-1.4-0.7-2.1-1.5-2.9c0.1-0.1,0.1-0.3,0.2-0.4c1.3,1.4,2.5,2.8,3.8,4.3
		c-0.1,0.4,0.2,0.6,0.5,0.7c0.1,0.3,0.1,0.7,0.2,1c-0.2-0.1-0.2,0.1-0.2,0.2c0.2,0.1,0.7,0,0.8-0.1c0.1-0.3-0.2-0.2-0.3-0.2
		c-0.1-0.3-0.1-0.6-0.2-0.9c0.1-0.1,0.2-0.3,0.4-0.4c0.4,0,0.7-0.1,1.1-0.2c0.6,1.6,1.8,2.8,3.7,2.8c2.1,0,3.8-1.7,3.8-3.9
		C22,11.4,19.4,9.4,16.7,10.4z M8.3,12.1c0.4,0.5,0.7,1.1,0.7,2.1c-0.1,1.6-1.4,2.8-3,2.9c-1.7,0.1-3.4-1.3-3.2-3.3
		C2.8,12.2,4,11,5.5,10.9c0.8-0.1,1.4,0.1,1.9,0.4C7.2,12,6.6,13,5.9,13.4c-0.2,0.1-0.4,0.1-0.5,0.4c-0.1,0.6,0.8,0.6,0.8,0
		c0.7-0.5,1.3-1.2,1.6-2.1C8,11.7,8.1,11.9,8.3,12.1z M12.6,13.8c0-0.1-0.1-0.2-0.1-0.3c0-0.1,0.2,0,0.2-0.1c0-0.1,0-0.1,0-0.2
		c-0.2-0.1-0.5,0-0.7,0c0,0.2,0,0.3,0.2,0.2c0,0.2,0,0.3,0,0.4c-0.1,0-0.2-0.1-0.2-0.2c-1.1-1.2-2.3-2.6-3.4-3.9
		c0-0.1,0-0.2,0.1-0.2c1.8,0,3.5,0,5.3,0C13.6,10.9,13.1,12.3,12.6,13.8z M14.4,14.3c-0.4,0.1-0.8,0.1-1.2,0.1c0.5-1.5,1-3,1.5-4.6
		c0.3,0.4,0.6,0.8,1,1.1C14.9,11.7,14.2,12.8,14.4,14.3z M16,11.6c0.6,0.7,1.1,1.4,1.7,2.1c-0.9,0.2-1.7,0.3-2.6,0.4
		C15.1,13,15.4,12.1,16,11.6z M18.1,17.1c-1.4,0-2.4-0.9-2.9-2.3c0.8-0.1,1.9-0.5,2.7-0.5c0.4,0,0.7,0.1,0.7-0.4
		c0-0.3-0.3-0.3-0.5-0.5c-0.3-0.2-0.5-0.7-0.8-1.1c-0.3-0.4-0.6-0.7-0.8-1.1c0.5-0.2,1.1-0.4,1.9-0.4c1.6,0.1,2.9,1.5,2.8,3.3
		C21.1,15.9,19.7,17.1,18.1,17.1z"/>
</g>
</svg>
