<?xml version="1.0" encoding="utf-8"?>
<!-- Generator: Adobe Illustrator 21.0.0, SVG Export Plug-In . SVG Version: 6.00 Build 0)  -->
<svg version="1.1" id="Layer_1" xmlns="http://www.w3.org/2000/svg" xmlns:xlink="http://www.w3.org/1999/xlink" x="0px" y="0px"
	 viewBox="0 0 24 24" style="enable-background:new 0 0 24 24;" xml:space="preserve">
<style type="text/css">
	.st0{fill:#565656;}
</style>
<g>
	<path class="st0" d="M5.1,3.9c0.7,0,1.4,0,2.1,0c0-0.1,0-0.1,0-0.2c0-0.4,0-0.8,0-1.2C7.2,2.2,7.3,2,7.6,2C7.8,2,8,2.2,8,2.5
		c0,0.4,0,0.8,0,1.2c0,0.1,0,0.1,0,0.2c0.7,0,1.4,0,2.1,0c0-0.1,0-0.1,0-0.2c0-0.4,0-0.8,0-1.3c0-0.2,0.1-0.4,0.3-0.4
		c0.2,0,0.4,0.1,0.4,0.2c0,0.1,0,0.2,0,0.3c0,0.4,0,0.9,0,1.4c0.7,0,1.4,0,2.1,0c0-0.1,0-0.2,0-0.2c0-0.4,0-0.9,0-1.3
		c0-0.2,0.2-0.3,0.4-0.3c0.2,0,0.3,0.1,0.4,0.3c0,0.1,0,0.2,0,0.2c0,0.4,0,0.9,0,1.4c0.7,0,1.4,0,2.1,0c0-0.4,0-0.8,0-1.2
		c0-0.1,0-0.2,0-0.3C16,2.2,16.2,2,16.4,2c0.2,0,0.4,0.2,0.4,0.4c0,0.2,0,0.4,0,0.7c0,0.3,0,0.6,0,0.9c0.7,0,1.4,0,2.1,0
		c0-0.4,0-0.8,0-1.2c0-0.1,0-0.2,0-0.3C19,2.2,19.1,2,19.3,2c0.2,0,0.4,0.2,0.4,0.4c0,0.4,0,0.9,0,1.3c0,0.1,0,0.1,0,0.2
		c0.4,0,0.8,0,1.3,0c0.1,0,0.2,0,0.3,0c0.2,0,0.3,0.1,0.3,0.3c0,0.1,0,0.1,0,0.2c0,5.7,0,11.3,0,17c0,0.1,0,0.1,0,0.2
		c0,0.2-0.2,0.3-0.3,0.4c-0.1,0-0.2,0-0.3,0c-6,0-12,0-18,0c-0.1,0-0.2,0-0.3,0c-0.2,0-0.3-0.1-0.3-0.3c0-0.1,0-0.2,0-0.3
		c0-5.6,0-11.2,0-16.9C2.4,4,2.5,3.9,3,3.9c0.4,0,0.8,0,1.3,0c0-0.1,0-0.2,0-0.2c0-0.4,0-0.8,0-1.3C4.3,2.2,4.4,2,4.7,2
		c0.2,0,0.4,0.2,0.4,0.4C5.1,2.9,5.1,3.4,5.1,3.9z M20.8,9.3c-5.9,0-11.8,0-17.6,0c0,4,0,7.9,0,11.9c5.9,0,11.7,0,17.6,0
		C20.8,17.2,20.8,13.3,20.8,9.3z M3.2,8.5c5.9,0,11.8,0,17.6,0c0-1.2,0-2.5,0-3.7c-0.4,0-0.7,0-1.1,0c0,0.4,0,0.7,0,1.1
		c0,0.3-0.2,0.4-0.4,0.4c-0.2,0-0.4-0.2-0.4-0.4c0-0.2,0-0.3,0-0.5c0-0.2,0-0.4,0-0.6c-0.7,0-1.4,0-2.1,0c0,0.3,0,0.6,0,0.9
		c0,0.4-0.1,0.6-0.4,0.6c-0.3,0-0.4-0.2-0.4-0.6c0-0.3,0-0.6,0-0.9c-0.7,0-1.4,0-2.1,0c0,0.1,0,0.1,0,0.2c0,0.3,0,0.6,0,0.9
		c0,0.3-0.2,0.4-0.4,0.4c-0.2,0-0.4-0.2-0.4-0.4c0-0.1,0-0.2,0-0.3c0-0.3,0-0.5,0-0.8c-0.7,0-1.4,0-2.1,0c0,0.1,0,0.2,0,0.3
		c0,0.3,0,0.6,0,0.8c0,0.2-0.2,0.4-0.4,0.4c-0.2,0-0.4-0.1-0.4-0.4c0-0.1,0-0.2,0-0.3c0-0.3,0-0.6,0-0.8c-0.7,0-1.4,0-2.1,0
		C8,4.9,8,5,8,5.1c0,0.3,0,0.5,0,0.8c0,0.2-0.2,0.3-0.4,0.4c-0.2,0-0.4-0.1-0.4-0.3c0-0.1,0-0.2,0-0.3c0-0.3,0-0.6,0-0.9
		c-0.7,0-1.4,0-2.1,0c0,0.4,0,0.7,0,1.1c0,0.3-0.2,0.4-0.4,0.4c-0.2,0-0.4-0.2-0.4-0.4c0-0.2,0-0.3,0-0.5c0-0.2,0-0.4,0-0.6
		c-0.4,0-0.7,0-1.1,0C3.2,6,3.2,7.2,3.2,8.5z"/>
	<path class="st0" d="M12.6,11.6c0.4,0.4,0.4,0.6,0.2,0.8c-0.2,0.2-0.4,0.1-0.8-0.2c-0.2,0.2-0.5,0.5-0.8,0.2
		c-0.2-0.2-0.1-0.4,0.2-0.7c-0.1-0.2-0.2-0.4-0.3-0.6c0-0.1,0.1-0.2,0.1-0.3c0.2-0.2,0.3-0.1,0.7,0.2c0.2-0.1,0.4-0.2,0.6-0.3
		c0.1,0,0.2,0.1,0.2,0.1C13,11,12.9,11.1,12.6,11.6z"/>
	<path class="st0" d="M6.7,14c-0.3-0.4-0.4-0.6-0.2-0.8C6.7,13,6.9,13,7.3,13.4C7.7,13,7.9,13,8.1,13.2c0.2,0.2,0.1,0.4-0.2,0.8
		c0.2,0.2,0.5,0.5,0.2,0.8c-0.2,0.2-0.4,0.1-0.8-0.2c-0.2,0.2-0.4,0.5-0.8,0.2C6.3,14.6,6.4,14.4,6.7,14z"/>
	<path class="st0" d="M11.4,14c-0.4-0.5-0.4-0.6-0.2-0.8c0.2-0.2,0.4-0.2,0.8,0.2c0.2-0.2,0.5-0.5,0.8-0.2c0.2,0.2,0.1,0.3-0.2,0.7
		c0.1,0.2,0.2,0.4,0.3,0.6c0,0.1-0.1,0.2-0.1,0.2c-0.2,0.2-0.3,0.1-0.7-0.2c-0.2,0.1-0.4,0.2-0.6,0.3c-0.1,0-0.2-0.1-0.2-0.1
		C11,14.5,11.1,14.4,11.4,14z"/>
	<path class="st0" d="M9.6,14.5c-0.4,0.4-0.6,0.4-0.8,0.2c-0.2-0.2-0.1-0.4,0.2-0.8c-0.2-0.2-0.5-0.5-0.2-0.8
		C9.1,13,9.2,13,9.7,13.4c0.2-0.2,0.5-0.5,0.8-0.2c0.2,0.2,0.1,0.3-0.2,0.8c0.2,0.2,0.5,0.5,0.2,0.8C10.3,15,10.1,14.9,9.6,14.5z"/>
	<path class="st0" d="M4.9,14.5c-0.4,0.4-0.6,0.4-0.8,0.2C4,14.6,4,14.4,4.4,14c-0.2-0.2-0.5-0.5-0.2-0.8C4.3,13,4.5,13,4.9,13.4
		C5.4,13,5.6,13,5.7,13.2c0.2,0.2,0.1,0.3-0.2,0.8c0.3,0.4,0.4,0.6,0.2,0.8C5.5,15,5.3,14.9,4.9,14.5z"/>
	<path class="st0" d="M9.6,11c0.4-0.3,0.6-0.4,0.8-0.2c0.2,0.2,0.1,0.4-0.2,0.7c0.1,0.2,0.2,0.4,0.3,0.6c0,0.1-0.1,0.2-0.1,0.2
		c-0.2,0.2-0.3,0.1-0.7-0.2c-0.2,0.1-0.4,0.2-0.6,0.3c-0.1,0-0.2,0-0.2-0.1c-0.2-0.2-0.1-0.4,0.2-0.8c-0.4-0.4-0.4-0.6-0.2-0.8
		C9,10.6,9.2,10.6,9.6,11z"/>
	<path class="st0" d="M14.9,11.6c0.4,0.4,0.4,0.6,0.2,0.8c-0.2,0.2-0.4,0.1-0.8-0.2c-0.2,0.2-0.4,0.5-0.8,0.2
		c-0.2-0.2-0.1-0.3,0.2-0.8c-0.4-0.4-0.4-0.6-0.2-0.8c0.2-0.2,0.4-0.1,0.8,0.2c0.2-0.2,0.5-0.5,0.8-0.2C15.4,11,15.3,11.1,14.9,11.6
		z"/>
	<path class="st0" d="M4.9,10.9c0.2-0.1,0.4-0.2,0.6-0.3c0.1,0,0.2,0,0.2,0.1c0.2,0.2,0.1,0.3-0.2,0.8c0.4,0.4,0.4,0.6,0.2,0.8
		c-0.2,0.2-0.4,0.1-0.8-0.2c-0.2,0.2-0.5,0.5-0.8,0.2C3.9,12.1,4,12,4.4,11.5c-0.2-0.2-0.5-0.5-0.2-0.8C4.5,10.5,4.7,10.8,4.9,10.9z
		"/>
	<path class="st0" d="M18.5,11.6c-0.4-0.4-0.4-0.6-0.2-0.8c0.2-0.2,0.4-0.1,0.8,0.2c0.2-0.2,0.5-0.5,0.8-0.2
		c0.2,0.2,0.1,0.4-0.2,0.8c0.2,0.2,0.5,0.4,0.2,0.8c-0.2,0.2-0.4,0.1-0.7-0.2c-0.2,0.1-0.4,0.2-0.6,0.3c-0.1,0-0.2-0.1-0.2-0.1
		C18.1,12.1,18.1,12,18.5,11.6z"/>
	<path class="st0" d="M7.9,11.5c0.4,0.4,0.4,0.6,0.2,0.8c-0.2,0.2-0.4,0.1-0.8-0.2c-0.2,0.2-0.4,0.5-0.8,0.2
		c-0.2-0.2-0.1-0.4,0.2-0.8c-0.1-0.2-0.4-0.3-0.3-0.6c0-0.1,0.1-0.2,0.1-0.2c0.2-0.2,0.4-0.1,0.8,0.2c0.4-0.3,0.6-0.4,0.8-0.2
		C8.4,11.1,8.1,11.3,7.9,11.5z"/>
	<path class="st0" d="M16.1,11.6c-0.3-0.4-0.4-0.6-0.2-0.8c0.1-0.1,0.3-0.2,0.4-0.1c0.1,0.1,0.2,0.2,0.4,0.3
		c0.4-0.3,0.6-0.4,0.8-0.2c0.2,0.2,0.1,0.4-0.2,0.8c0.2,0.2,0.5,0.4,0.2,0.8c-0.2,0.2-0.4,0.1-0.7-0.2c-0.2,0.1-0.4,0.2-0.6,0.3
		c-0.1,0-0.2-0.1-0.3-0.1C15.7,12.2,15.8,12,16.1,11.6z"/>
	<path class="st0" d="M16.7,16c0.2,0,0.4,0.2,0.4,0.4c0,0.2-0.2,0.4-0.4,0.4c-0.2,0-0.4-0.2-0.4-0.4C16.3,16.1,16.5,16,16.7,16z"/>
	<path class="st0" d="M14,13.9c0-0.2,0.2-0.4,0.4-0.4c0.2,0,0.4,0.2,0.4,0.4c0,0.2-0.2,0.4-0.4,0.4C14.1,14.4,14,14.2,14,13.9z"/>
	<ellipse transform="matrix(2.183516e-03 -1 1 2.183516e-03 -9.0856 23.6255)" class="st0" cx="7.3" cy="16.4" rx="0.4" ry="0.4"/>
	
		<ellipse transform="matrix(1 -4.592549e-03 4.592549e-03 1 -6.391122e-02 8.765643e-02)" class="st0" cx="19.1" cy="14" rx="0.4" ry="0.4"/>
	<path class="st0" d="M14,16.4c0-0.2,0.2-0.4,0.4-0.4c0.2,0,0.4,0.2,0.4,0.4c0,0.2-0.2,0.4-0.4,0.4C14.1,16.8,14,16.6,14,16.4z"/>
	
		<ellipse transform="matrix(1 -2.921617e-03 2.921617e-03 1 -4.773394e-02 5.574070e-02)" class="st0" cx="19.1" cy="16.4" rx="0.4" ry="0.4"/>
	
		<ellipse transform="matrix(1.644060e-02 -0.9999 0.9999 1.644060e-02 -13.9092 23.4125)" class="st0" cx="4.9" cy="18.8" rx="0.4" ry="0.4"/>
	
		<ellipse transform="matrix(1.550058e-02 -0.9999 0.9999 1.550058e-02 -4.6417 32.8372)" class="st0" cx="14.4" cy="18.8" rx="0.4" ry="0.4"/>
	<path class="st0" d="M19.5,18.8c0,0.2-0.2,0.4-0.4,0.4c-0.2,0-0.4-0.2-0.4-0.4c0-0.2,0.2-0.4,0.4-0.4
		C19.3,18.4,19.5,18.5,19.5,18.8z"/>
	
		<ellipse transform="matrix(1.793926e-02 -0.9998 0.9998 1.793926e-02 -11.5056 21.0166)" class="st0" cx="4.9" cy="16.4" rx="0.4" ry="0.4"/>
	
		<ellipse transform="matrix(0.9999 -1.627439e-02 1.627439e-02 0.9999 -0.3034 0.2743)" class="st0" cx="16.7" cy="18.8" rx="0.4" ry="0.4"/>
	
		<ellipse transform="matrix(0.9998 -2.025608e-02 2.025608e-02 0.9998 -0.2793 0.3412)" class="st0" cx="16.7" cy="14" rx="0.4" ry="0.4"/>
	
		<ellipse transform="matrix(0.9999 -1.295632e-02 1.295632e-02 0.9999 -0.211 0.1569)" class="st0" cx="12" cy="16.4" rx="0.4" ry="0.4"/>
	<path class="st0" d="M10,16.4c0,0.2-0.2,0.4-0.4,0.4c-0.2,0-0.4-0.2-0.4-0.4c0-0.2,0.2-0.4,0.4-0.4C9.9,16,10,16.1,10,16.4z"/>
	
		<ellipse transform="matrix(0.9991 -4.129437e-02 4.129437e-02 0.9991 -0.7691 0.3173)" class="st0" cx="7.3" cy="18.8" rx="0.4" ry="0.4"/>
	<path class="st0" d="M9.7,18.4c0.2,0,0.4,0.2,0.4,0.4c0,0.2-0.2,0.4-0.4,0.4c-0.2,0-0.4-0.2-0.4-0.4C9.3,18.5,9.4,18.4,9.7,18.4z"
		/>
	<path class="st0" d="M12.4,18.8c0,0.2-0.2,0.4-0.4,0.4c-0.2,0-0.4-0.2-0.4-0.4c0-0.2,0.2-0.4,0.4-0.4
		C12.2,18.4,12.4,18.6,12.4,18.8z"/>
</g>
</svg>
