<?xml version="1.0" encoding="utf-8"?>
<!-- Generator: Adobe Illustrator 21.0.0, SVG Export Plug-In . SVG Version: 6.00 Build 0)  -->
<svg version="1.1" id="Layer_1" xmlns="http://www.w3.org/2000/svg" xmlns:xlink="http://www.w3.org/1999/xlink" x="0px" y="0px"
	 viewBox="0 0 24 24" style="enable-background:new 0 0 24 24;" xml:space="preserve">
<g>
	<path d="M13.4,20.1c-2.6,0-5.3,0-7.9,0c-0.2,0-0.5,0-0.7-0.1C3.1,19.8,2,18.4,2,16.6c0-1.5,0-2.9,0-4.4v-1.5v-0.5C2,9.8,2,9.4,2,9
		c0.1-1.7,1.4-3.2,3.2-3.2c0.5,0,1,0,1.5,0C6.8,5.6,6.9,5.5,7,5.4C7.1,5.3,7.3,5.1,7.4,5c0.8-0.8,1.7-1.1,2.8-1.1c1.1,0,2.3,0,3.5,0
		h0.1c0.9,0,1.7,0.2,2.3,0.8c0.4,0.2,0.7,0.6,1,0.8c0.1,0.1,0.2,0.2,0.2,0.2c0.4,0,0.8,0,1.2,0c1.5,0,2.6,0.7,3.2,2
		c0.1,0.2,0.2,0.5,0.2,0.7c0,0.1,0.1,0.2,0.1,0.2v0.2v8.3l-0.1,0.2c-0.4,1.6-1.7,2.8-3.5,2.8C16.9,20.1,15.2,20.1,13.4,20.1z
		 M11.9,5c-0.5,0-1.1,0-1.6,0c-0.8,0-1.4,0.3-2,0.8C8.2,6,8,6.1,7.9,6.2S7.6,6.5,7.4,6.6C7.3,6.8,7,6.9,6.8,6.9c-0.5,0-1,0-1.6,0
		c-1.1,0.1-2,1-2,2.1c0,0.4,0,0.8,0,1.2v0.5v1.5c0,1.5,0,2.9,0,4.4c0,1.1,0.8,2,1.9,2.2c0.1,0,0.3,0.1,0.5,0.1c4.3,0,8.6,0,13,0
		c1.1,0,2-0.7,2.3-1.8l0.1-0.2v-8c0-0.1-0.1-0.1-0.1-0.2c-0.1-0.2-0.1-0.4-0.1-0.5c-0.4-0.9-1.1-1.3-2.2-1.3c-0.4,0-0.8,0-1.2,0
		c-0.3,0-0.5-0.1-0.7-0.3c-0.1-0.1-0.2-0.2-0.3-0.3C16,6,15.8,5.8,15.5,5.6c-0.4-0.4-1-0.5-1.6-0.5h-0.1C13.1,5,12.5,5,11.9,5z
		 M6.7,5.8L6.7,5.8L6.7,5.8z M12.1,16.3L12.1,16.3c-2.2,0-3.9-1.7-3.9-3.9c0-1,0.4-2,1.1-2.8C10,8.9,11,8.5,12.1,8.5
		c1.1,0,2,0.4,2.8,1.1c0.7,0.7,1.1,1.7,1.1,2.8l0,0c0,1-0.4,2-1.1,2.8C14.1,15.9,13.1,16.3,12.1,16.3z M12.1,9.8L12.1,9.8
		c-0.7,0-1.4,0.3-1.9,0.8c-0.5,0.5-0.8,1.2-0.8,1.9c0,1.5,1.2,2.7,2.7,2.7l0,0c0.7,0,1.4-0.3,1.9-0.8c0.5-0.5,0.8-1.2,0.8-1.9l0,0
		c0-0.7-0.3-1.4-0.8-1.9C13.4,10,12.8,9.8,12.1,9.8z M17.7,11.9L17.7,11.9c-0.5,0-1-0.2-1.3-0.6c-0.4-0.4-0.5-0.8-0.5-1.3
		c0-0.5,0.2-1,0.5-1.3c0.4-0.4,0.8-0.5,1.3-0.5l0,0c1,0,1.8,0.8,1.8,1.9c0,0.5-0.2,1-0.5,1.3C18.6,11.7,18.2,11.9,17.7,11.9z
		 M17.7,9.5c-0.2,0-0.3,0.1-0.4,0.2s-0.2,0.3-0.2,0.5c0,0.2,0.1,0.3,0.2,0.4c0.1,0.1,0.3,0.2,0.4,0.2c0.2,0,0.3-0.1,0.4-0.2
		c0.1-0.1,0.2-0.3,0.2-0.4C18.3,9.8,18,9.5,17.7,9.5L17.7,9.5L17.7,9.5z"/>
</g>
</svg>
