<?xml version="1.0" encoding="utf-8"?>
<!-- Generator: Adobe Illustrator 21.0.0, SVG Export Plug-In . SVG Version: 6.00 Build 0)  -->
<svg version="1.1" id="Layer_1" xmlns="http://www.w3.org/2000/svg" xmlns:xlink="http://www.w3.org/1999/xlink" x="0px" y="0px"
	 viewBox="0 0 24 24" style="enable-background:new 0 0 24 24;" xml:space="preserve">
<g>
	<path d="M2,12.9c0.1-0.3,0.4-0.3,0.7-0.3c0-0.2,0.1-0.3-0.1-0.5c0,0,0-0.1,0-0.2c0.1-0.2,0.3-0.5,0.5-0.6c0.2-0.1,0.4-0.2,0.5-0.4
		c0.2-0.3,0.4-0.4,0.8-0.4c1.4-0.1,2.7-0.2,4.1-0.3c0.1,0,0.2-0.1,0.3-0.2c0.4-0.5,0.8-1,1.2-1.5c0.2-0.2,0.3-0.3,0.6-0.3
		c3.3,0,6.6-0.1,9.9-0.1c0.4,0,0.5,0.1,0.5,0.5c0.1,1.2,0.2,2.5,0.3,3.7c0,0,0,0.1,0,0.1c0.1,0,0.2,0,0.3,0c0.3,0,0.4,0.2,0.4,0.5
		c0,0.2-0.1,0.3-0.1,0.5c-0.1,0.5-0.4,0.7-0.9,0.7c-0.2,0-0.4-0.1-0.5-0.3c-0.3-0.5-0.6-1-0.9-1.5c-0.1-0.2-0.3-0.3-0.5-0.3
		c-0.6,0-1.2,0-1.9,0c-0.2,0-0.4,0.1-0.5,0.3c-0.3,0.5-0.6,1.1-1,1.6c-0.1,0.1-0.1,0.2-0.3,0.2c-2.5,0-5,0-7.5,0
		c-0.1,0-0.2,0-0.3-0.1c-0.4-0.6-0.9-1.2-1.3-1.8c-0.1-0.2-0.3-0.2-0.5-0.2c-0.7,0-1.4,0-2.1,0c-0.3,0-0.4,0.1-0.5,0.4
		C3.1,13,3,13.5,2.8,14c-0.1,0.2-0.1,0.2-0.3,0.2c-0.2,0-0.4-0.2-0.5-0.4C2,13.5,2,13.2,2,12.9z M13.7,10.8c0.1,0,0.2,0,0.2,0
		c0.6,0,1.2,0,1.9,0c0.3,0,0.5-0.1,0.7-0.3c0.1-0.1,0.2-0.2,0.2-0.3c0-0.4,0-0.8,0-1.2c-1,0-2,0-3,0C13.7,9.6,13.7,10.2,13.7,10.8z
		 M20.2,10.8c0-0.1,0-0.1,0-0.2c0-0.4-0.1-0.8-0.1-1.1c0-0.5,0-0.5-0.5-0.5c-0.7,0-1.4,0-2.2,0c0,0.6,0,1.2,0,1.8
		C18.4,10.8,19.3,10.8,20.2,10.8z M10,10.8c0.8,0,1.5,0,2.3,0c0,0,0.1,0,0.1-0.1c0.4-0.5,0.4-1.1,0.3-1.6c-0.8,0-1.5,0-2.3,0
		c-0.1,0-0.1,0-0.2,0.1C10,9.4,9.8,9.7,9.5,10.1c0.2,0,0.3,0,0.5,0C10,10.3,10,10.5,10,10.8z"/>
	<path d="M18.2,12.5c1.2,0,2.1,1,2.1,2.1c0,1.2-1,2.1-2.1,2.1c-1.2,0-2.2-1-2.2-2.2C16.1,13.4,17.1,12.4,18.2,12.5z M18.3,15.6
		c0.2-0.1,0.3-0.1,0.5-0.2c-0.1-0.1-0.2-0.2-0.3-0.3c-0.1-0.1-0.2,0-0.2,0.1C18.3,15.3,18.3,15.4,18.3,15.6z M18.3,13.6
		c0,0.2,0,0.3,0,0.4c0,0.1,0.1,0.2,0.2,0.1c0.1-0.1,0.2-0.2,0.3-0.3C18.7,13.7,18.5,13.6,18.3,13.6z M17.2,14.4c0.2,0,0.3,0,0.4,0
		c0.1,0,0.2-0.1,0.1-0.2c-0.1-0.1-0.2-0.2-0.3-0.3C17.3,14.1,17.3,14.3,17.2,14.4z M19,13.9c-0.1,0.1-0.2,0.2-0.3,0.3
		c-0.1,0.1-0.1,0.2,0.1,0.2c0.1,0,0.2,0,0.4,0C19.1,14.3,19.1,14.1,19,13.9z M18.1,13.6c-0.2,0.1-0.3,0.1-0.5,0.2
		c0.1,0.1,0.2,0.2,0.3,0.3c0.1,0.1,0.2,0,0.2-0.1C18.1,13.9,18.1,13.7,18.1,13.6z M19,15.2C19,15.2,19,15.2,19,15.2
		c0.1-0.2,0.2-0.3,0.2-0.5c-0.2,0-0.3,0-0.4,0c-0.1,0-0.1,0.1-0.1,0.2C18.8,15,18.9,15.1,19,15.2z M18.1,15.6c0-0.2,0-0.3,0-0.4
		c0,0,0-0.1-0.1-0.1c0,0-0.1,0-0.1,0c-0.1,0.1-0.2,0.1-0.3,0.2C17.8,15.5,17.9,15.5,18.1,15.6z M17.4,15.2
		C17.4,15.2,17.4,15.2,17.4,15.2c0.1-0.1,0.2-0.1,0.3-0.2c0,0,0-0.1,0-0.1c0,0-0.1-0.1-0.1-0.1c-0.1,0-0.2,0-0.4,0
		C17.3,14.9,17.3,15,17.4,15.2z"/>
	<path d="M5,12.5c1.2,0,2.1,0.9,2.1,2.1c0,1.2-1,2.1-2.1,2.1c-1.2,0-2.2-1-2.2-2.1C2.9,13.4,3.9,12.5,5,12.5z M5.2,13.6
		c0,0.2,0,0.3,0,0.4c0,0.1,0.1,0.2,0.2,0.1c0.1-0.1,0.2-0.2,0.3-0.3C5.5,13.7,5.4,13.6,5.2,13.6z M4.2,13.9
		c-0.1,0.2-0.1,0.3-0.2,0.5c0.2,0,0.3,0,0.4,0c0,0,0.1,0,0.1-0.1c0,0,0-0.1,0-0.1C4.4,14.1,4.4,14.1,4.2,13.9z M5.8,13.9
		c-0.1,0.1-0.2,0.2-0.3,0.3c-0.1,0.1,0,0.2,0.1,0.2c0.1,0,0.2,0,0.4,0C6,14.3,5.9,14.1,5.8,13.9z M5.7,15.4
		c-0.1-0.1-0.2-0.2-0.3-0.3c-0.1-0.1-0.2-0.1-0.2,0.1c0,0.1,0,0.2,0,0.4C5.4,15.5,5.5,15.5,5.7,15.4z M4.4,13.8
		C4.5,13.9,4.6,14,4.7,14c0.1,0.1,0.2,0,0.2-0.1c0-0.1,0-0.2,0-0.4C4.7,13.6,4.6,13.7,4.4,13.8z M4.2,15.2c0.1-0.1,0.2-0.2,0.3-0.3
		c0.1-0.1,0.1-0.2-0.1-0.2c-0.1,0-0.2,0-0.4,0C4.1,14.9,4.2,15,4.2,15.2z M6.1,14.7c-0.2,0-0.3,0-0.4,0c-0.1,0-0.2,0.1-0.1,0.2
		c0.1,0.1,0.2,0.2,0.3,0.3C5.9,15,6,14.9,6.1,14.7z M4.9,15.6c0-0.2,0-0.3,0-0.4c0,0,0-0.1-0.1-0.1c0,0-0.1,0-0.1,0
		c-0.1,0.1-0.2,0.2-0.3,0.3C4.6,15.5,4.7,15.5,4.9,15.6z"/>
	<path d="M11.7,14.5c1.1,0,2.1,0,3.2,0c0.1,0,0.1,0,0.2,0c0.2,0,0.3,0.1,0.3,0.3c0,0.2-0.1,0.3-0.3,0.3c0,0-0.1,0-0.1,0
		c-2.1,0-4.3,0-6.4,0c-0.1,0-0.2,0-0.2,0C8.1,15.1,8,15,8,14.8c0-0.2,0.1-0.3,0.2-0.3c0.1,0,0.2,0,0.3,0
		C9.6,14.5,10.6,14.5,11.7,14.5z"/>
	<path d="M14.5,8c-0.9,0-1.8,0-2.7,0c-0.1,0-0.1,0-0.2,0c-0.2,0-0.3-0.1-0.3-0.3c0-0.2,0.1-0.3,0.2-0.3c0.1,0,0.2,0,0.2,0
		c1.8,0,3.6,0,5.4-0.1c0.1,0,0.2,0,0.2,0c0.2,0,0.2,0.1,0.2,0.3c0,0.2-0.1,0.3-0.2,0.3c-0.1,0-0.1,0-0.2,0C16.3,7.9,15.4,7.9,14.5,8
		C14.5,7.9,14.5,8,14.5,8z"/>
</g>
</svg>
