<?xml version="1.0" encoding="utf-8"?>
<!-- Generator: Adobe Illustrator 21.0.0, SVG Export Plug-In . SVG Version: 6.00 Build 0)  -->
<svg version="1.1" id="Layer_1" xmlns="http://www.w3.org/2000/svg" xmlns:xlink="http://www.w3.org/1999/xlink" x="0px" y="0px"
	 viewBox="0 0 24 24" style="enable-background:new 0 0 24 24;" xml:space="preserve">
<g>
	<path d="M8.7,22c-0.3,0-1.3-0.4-1.2-1.5c0.2-2.3,0.6-6.2,0.7-7.9c0.1-0.7-0.2-1.4-0.9-1.7c-0.9-0.5-1.4-1.3-1.5-2.3
		c-0.2-1.7,0.3-3.2,1-4.7c0.3-0.5,0.6-1,1-1.4c0.5-0.5,1.1-0.5,1.6,0c0.6,0.5,1,1.2,1.3,2c0.5,1.2,0.8,2.5,0.7,3.9
		c-0.1,0.8-0.3,1.6-1,2.2c-0.1,0.1-0.3,0.2-0.5,0.3c-0.7,0.4-1,1-0.9,1.8c0.2,2.4,0.5,6.3,0.6,7.9C9.9,21.5,9.1,22,8.7,22z"/>
	<path d="M18.1,2.3c0-0.2-0.1-0.3-0.3-0.3c-0.2,0-0.4,0.1-0.4,0.3c0,0.1,0,0.2,0,0.3c0,1.5,0,3.1,0,4.6c0,0.1,0,0.2,0,0.3
		c-0.1,0.2-0.2,0.3-0.4,0.3c-0.2,0-0.3-0.1-0.4-0.3c0-0.1,0-0.2,0-0.3c0-1.5,0-3.1,0-4.6c0-0.1,0-0.2,0-0.3C16.4,2.1,16.2,2,16,2
		c-0.2,0-0.3,0.1-0.4,0.3c0,0.1,0,0.2,0,0.3c0,1.5,0,3.1,0,4.6c0,0.1,0,0.2,0,0.3c-0.1,0.2-0.2,0.3-0.4,0.3c-0.2,0-0.3-0.1-0.3-0.3
		c0-0.1,0-0.2,0-0.3c0-1.5,0-3.1,0-4.6c0-0.4-0.1-0.6-0.4-0.6S14,2.2,14,2.6c0,1.5,0,3.1,0,4.6c0,0.1,0,0.2,0,0.3
		c-0.1,0.2-0.2,0.3-0.4,0.3c-0.2,0-0.3-0.1-0.4-0.3c0-0.1,0-0.2,0-0.3c0-1.5,0-3,0-4.5c0-0.1,0-0.2,0-0.3C13.2,2.1,13,2,12.8,2
		c-0.2,0-0.3,0.1-0.4,0.3c0,0.1,0,0.2,0,0.2c0,1.7,0,3.4,0,5.1c0,0.3,0,0.6,0,0.8c0.1,1,0.5,1.8,1.5,2.3c0.6,0.3,0.9,0.9,0.8,1.7
		c0,0,0,0,0,0.1c-0.2,1.7-0.5,5.6-0.7,7.9C14,21.6,14.9,22,15.3,22c0.4,0,1.2-0.5,1.1-1.5c-0.2-1.5-0.4-5.4-0.6-7.9c0,0,0-0.1,0-0.1
		h0c0-0.7,0.3-1.3,0.9-1.7c0.2-0.1,0.3-0.2,0.5-0.3c0.7-0.6,0.9-1.4,1-2.2c0-1.9,0-3.8,0-5.7C18.1,2.5,18.1,2.4,18.1,2.3z"/>
</g>
</svg>
