<?xml version="1.0" encoding="utf-8"?>
<!-- Generator: Adobe Illustrator 21.0.0, SVG Export Plug-In . SVG Version: 6.00 Build 0)  -->
<svg version="1.1" id="Layer_1" xmlns="http://www.w3.org/2000/svg" xmlns:xlink="http://www.w3.org/1999/xlink" x="0px" y="0px"
	 viewBox="0 0 24 24" style="enable-background:new 0 0 24 24;" xml:space="preserve">
<g>
	<path d="M22,15c-0.1,0.2-0.4,0.3-0.6,0.3c-0.2,0-0.3,0.1-0.5,0.1c0,0.9-0.2,1.6-0.9,2.2c-0.4,0.4-1,0.6-1.6,0.7
		c-1.3,0.1-2.6-0.7-2.9-2.2c-0.1,0-0.1,0-0.2,0c-2,0-4,0-6,0C9,16,8.4,16,8,15.7c-0.1-0.1-0.2-0.1-0.3-0.2c0,0.1,0,0.1,0,0.2
		c0,0.3-0.1,0.3-0.3,0.2c-0.1-0.1-0.2-0.1-0.3-0.1c0,0,0,0-0.1,0c0,1.3-0.6,2.2-1.9,2.5c-0.9,0.3-1.9-0.1-2.5-0.9
		c-0.5-0.7-0.8-1.8,0-3c-0.1-0.1-0.2-0.1-0.3-0.2c-0.3-0.3-0.3-0.5-0.1-0.9c0.5-0.9,1.3-1.3,2.4-1.4c0.1,0,0.1,0,0.2,0
		c0-0.2,0-0.4,0-0.6c0-0.2,0.2-0.4,0.4-0.4c0.2-0.1,0.4-0.1,0.6-0.2c0.1,0,0.2-0.1,0.2-0.2c0.4-0.9,0.8-1.8,1.2-2.7c0,0,0,0,0-0.1
		c-0.2,0-0.3,0-0.5-0.1c-0.1,0-0.2-0.1-0.2-0.2c-0.1-0.5-0.1-1,0-1.5C6.4,5.8,6.7,5.6,7,5.7c0.5,0.1,1,0.3,1.5,0.6
		c0.3,0.2,0.3,0.3,0.3,0.6C9,6.9,9.3,7,9.6,7.1c0.1,0,0.2,0.1,0.2,0.3C9.7,7.5,9.6,7.5,9.4,7.5C9.2,7.4,8.9,7.3,8.7,7.2
		C8.6,7.4,8.5,7.5,8.7,7.6c0.1,0,0.1,0.2,0.1,0.3C8.8,8,8.6,8,8.5,8c0,0-0.1,0-0.1-0.1c0,0.1-0.1,0.2-0.1,0.2
		C8.1,8.8,7.9,9.3,7.7,9.9c-0.2,0.5-0.3,1-0.2,1.5c0.1,0.6,0.2,1.2,0.5,1.8c0.2,0.4,0.5,0.7,1,0.8c0.9,0.2,1.9,0.3,2.8,0.1
		c0.6-0.1,1.2-0.8,1.2-1.3c0-0.2-0.1-0.4-0.2-0.6c-0.2-0.3-0.5-0.7-0.7-1c-0.1-0.1-0.3-0.3-0.2-0.5c0.1-0.2,0.3-0.1,0.5-0.1
		c2.1,0,4.2,0,6.2,0c0.2,0,0.3,0,0.5,0.2c0,0,0.1,0.1,0.1,0.1c0.4,0.4,0.9,0.7,1.4,0.6c0.1,0,0.2,0,0.3,0.1c0.2,0.2,0.4,0.4,0.6,0.5
		c0.1,0.1,0.1,0.2,0.1,0.3c0,0.1-0.1,0.3-0.1,0.4c0,0.2-0.1,0.3-0.2,0.4c0.2,0.5,0.4,1,0.6,1.5C22,14.8,22,14.9,22,15z M4.4,17.2
		c0.9,0,1.6-0.9,1.3-1.8c0-0.1-0.1-0.1-0.2-0.2C5,15.1,4.4,15,3.8,14.8c-0.1,0-0.2,0-0.2,0.1c-0.4,0.4-0.6,0.9-0.4,1.4
		C3.4,16.8,3.9,17.2,4.4,17.2z M16.7,15.6c0,0.7,0.3,1.1,0.9,1.4c0.6,0.3,1.2,0.2,1.7-0.2c0.4-0.3,0.6-0.8,0.5-1.3
		C18.8,15.6,17.8,15.6,16.7,15.6z"/>
	<path d="M15.4,10.2c-1.2,0-2.3,0-3.5,0c-0.3,0-0.4-0.1-0.3-0.4c0-0.3,0.1-0.6,0.2-1c0-0.2,0.2-0.2,0.3-0.2c1.7-0.1,3.4-0.2,5.1-0.2
		c0.5,0,1,0,1.5,0.1c0.1,0,0.2,0,0.3,0.1c0.4,0.1,0.6,0.4,0.5,0.9c-0.1,0.2-0.1,0.4-0.2,0.5c-0.1,0.2-0.2,0.2-0.4,0.2
		C17.7,10.2,16.6,10.2,15.4,10.2z"/>
</g>
</svg>
