<?xml version="1.0" encoding="utf-8"?>
<!-- Generator: Adobe Illustrator 21.0.0, SVG Export Plug-In . SVG Version: 6.00 Build 0)  -->
<svg version="1.1" id="Layer_1" xmlns="http://www.w3.org/2000/svg" xmlns:xlink="http://www.w3.org/1999/xlink" x="0px" y="0px"
	 viewBox="0 0 24 24" style="enable-background:new 0 0 24 24;" xml:space="preserve">
<g>
	<path d="M22,12.6c-0.1,0.4-0.1,0.8-0.2,1.1c-0.4,2.3-1.5,4.2-3.3,5.8c-1.6,1.4-3.5,2.2-5.6,2.4c-2.6,0.3-5-0.4-7.1-2
		c-1.9-1.5-3.2-3.4-3.7-5.8c-0.6-3,0-5.7,1.8-8.2c1.5-2,3.4-3.2,5.8-3.7c0.4-0.1,0.9-0.1,1.3-0.2c0.1,0,0.1,0,0.2,0
		c0.4,0,0.8,0,1.2,0c0.1,0,0.3,0,0.4,0c2.1,0.2,4,1.1,5.6,2.5c1.7,1.5,2.8,3.5,3.2,5.7c0.1,0.4,0.1,0.8,0.2,1.1
		C22,11.8,22,12.2,22,12.6z M12,3c-5,0-9,4-9,9c0,4.9,4,9,9,9c5,0,9-4,9-9C21,7.1,17,3,12,3z"/>
	<path d="M17.9,12c0,3.2-2.7,5.9-5.9,5.8c-3.2,0-5.9-2.7-5.8-5.9c0-3.2,2.7-5.9,5.9-5.8C15.2,6.2,17.9,8.8,17.9,12z M10,7.6
		c0.4,0.7,0.8,1.5,1.3,2.2c0,0,0.1,0.1,0.2,0.1c0.3-0.1,0.7-0.1,1,0c0.1,0,0.2,0,0.2-0.1c0.3-0.5,0.6-1.1,0.9-1.6
		c0.1-0.2,0.2-0.3,0.3-0.5C12.7,7,11.4,7,10,7.6z M14,16.4C14,16.4,14,16.4,14,16.4c-0.4-0.8-0.8-1.5-1.2-2.2
		c-0.1-0.1-0.1-0.1-0.2-0.1c-0.3,0.1-0.7,0.1-1,0c-0.1,0-0.2,0-0.3,0.1c-0.4,0.7-0.8,1.3-1.1,2c0,0-0.1,0.1-0.1,0.2
		C11.2,17,12.8,17,14,16.4z M9.2,8.1c-1.2,0.9-2,2.4-2,3.4c0.8,0,1.7,0,2.5,0c0,0,0.1,0,0.1-0.1c0.1-0.4,0.3-0.8,0.7-1.1
		C10,9.6,9.6,8.8,9.2,8.1z M7.2,12.5c0,1.3,1,2.8,2,3.4c0.4-0.7,0.8-1.4,1.2-2.1c0.1-0.1,0-0.2-0.1-0.2c-0.2-0.3-0.4-0.5-0.5-0.9
		c0-0.1-0.1-0.2-0.2-0.2c-0.6,0-1.3,0-1.9,0C7.5,12.5,7.4,12.5,7.2,12.5z M14.8,8.1c-0.4,0.8-0.9,1.5-1.3,2.3
		c0.3,0.3,0.5,0.7,0.7,1.1c0,0,0.1,0.1,0.2,0.1c0.7,0,1.5,0,2.2,0c0.1,0,0.1,0,0.2,0C16.6,10.1,16,8.9,14.8,8.1z M16.8,12.5
		c-0.1,0-0.2,0-0.2,0c-0.6,0-1.3,0-1.9,0c-0.3,0-0.5,0-0.6,0.4c-0.1,0.3-0.3,0.5-0.5,0.8c0.4,0.7,0.8,1.5,1.3,2.2
		C16,15.1,16.6,13.9,16.8,12.5z M13.3,12c0-0.7-0.6-1.3-1.2-1.3c-0.7,0-1.3,0.6-1.3,1.3c0,0.7,0.6,1.3,1.2,1.3
		C12.7,13.3,13.3,12.7,13.3,12z"/>
	<path d="M10.9,19.4c0,0.3-0.3,0.6-0.6,0.5c-0.8-0.2-1.6-0.4-2.3-0.8c-2-1.2-3.4-2.9-3.9-5.2c0-0.2-0.1-0.4,0.1-0.5
		c0.1-0.1,0.3-0.2,0.5-0.2c0.2,0,0.3,0.2,0.4,0.4c0.1,0.4,0.2,0.8,0.4,1.2c1,2.2,2.6,3.6,5,4.2C10.8,18.9,10.9,19.1,10.9,19.4z"/>
	<path d="M19.9,10.4c0,0.2-0.2,0.5-0.4,0.5c-0.2,0.1-0.5-0.1-0.5-0.3c-0.1-0.1-0.1-0.3-0.1-0.4c-0.8-2.7-2.5-4.4-5.1-5.1
		c-0.1,0-0.3-0.1-0.4-0.1c-0.2-0.1-0.3-0.4-0.2-0.6c0.1-0.2,0.3-0.3,0.6-0.3c1,0.2,1.9,0.6,2.7,1.1c1.8,1.2,2.9,2.8,3.4,4.9
		C19.9,10.3,19.9,10.4,19.9,10.4z"/>
	<path d="M12.5,12c0,0.3-0.2,0.5-0.5,0.5c-0.3,0-0.5-0.2-0.5-0.5c0-0.3,0.2-0.5,0.5-0.5C12.3,11.5,12.5,11.7,12.5,12z"/>
</g>
</svg>
